<?xml version="1.0" encoding="utf-8"?>
<!-- Generator: Adobe Illustrator 24.3.0, SVG Export Plug-In . SVG Version: 6.00 Build 0)  -->
<svg version="1.1" id="Layer_1" xmlns="http://www.w3.org/2000/svg" xmlns:xlink="http://www.w3.org/1999/xlink" x="0px" y="0px"
	 viewBox="0 0 177.06 110.83" style="enable-background:new 0 0 177.06 110.83;" xml:space="preserve">
<style type="text/css">
	.st0{fill:#B2AA4A;}
	.st1{clip-path:url(#SVGID_2_);}
	.st2{fill:none;stroke:#D8D5A4;stroke-width:0.25;stroke-miterlimit:3.8637;}
	.st3{fill-rule:evenodd;clip-rule:evenodd;fill:#6E6B0D;}
	.st4{fill:none;stroke:#B2AA4A;stroke-width:3;stroke-miterlimit:3.8637;}
	.st5{fill:#A8A66E;}
	.st6{fill:#FFFFFF;}
</style>
<g id="Background">
</g>
<g id="Guides">
</g>
<g id="Foreground">
</g>
<g id="Layer_1_1_">
	<g>
		<g>
			<g>
				<g>
					<ellipse class="st0" cx="89.25" cy="55.26" rx="61.32" ry="30.19"/>
					<path class="st0" d="M89.25,55.26"/>
				</g>
				<g>
					<g>
						<defs>
							<ellipse id="SVGID_1_" cx="89.25" cy="55.26" rx="61.32" ry="30.19"/>
						</defs>
						<clipPath id="SVGID_2_">
							<use xlink:href="#SVGID_1_"  style="overflow:visible;"/>
						</clipPath>
						<g class="st1">
							<g>
								<polyline class="st2" points="26.62,29.23 28.56,29.45 30.49,29.27 32.43,29.09 34.36,29.62 36.3,29.51 38.23,29.48 
									40.17,29.65 42.1,29.52 44.04,29.38 45.97,28.93 47.91,29.13 49.84,29.62 51.78,29.3 53.71,29.22 55.65,29.53 57.58,29.09 
									59.52,29.61 61.46,29.61 63.39,29.45 65.32,29.15 67.26,28.95 69.2,29.07 71.13,29.51 73.07,29.5 75,29.08 76.94,29.36 
									78.87,29.2 80.81,29.61 82.74,29.4 84.68,29.68 86.61,29.15 88.55,29.14 90.48,29.51 92.42,29.44 94.35,29.1 96.29,29.64 
									98.22,29.44 100.16,29.32 102.1,29.25 104.03,29.61 105.96,29.65 107.9,29.47 109.83,29.36 111.77,29.3 113.71,29.62 
									115.64,29.04 117.57,29.29 119.51,29.64 121.45,29.58 123.38,29.25 125.32,29.11 127.25,29.33 129.19,29.53 131.12,29.71 
									133.06,29.31 134.99,29.08 136.93,29.1 138.86,28.98 140.8,29.62 142.73,29.51 144.67,29.47 146.6,29.51 148.54,29.62 
																	"/>
							</g>
							<g>
								<polyline class="st2" points="26.55,31.42 28.49,31.34 30.42,31.53 32.36,30.95 34.29,30.97 36.23,31.37 38.16,31.19 
									40.1,31.34 42.03,30.83 43.97,31.47 45.9,31.59 47.84,31.15 49.77,31.57 51.71,31.14 53.64,31.3 55.58,31.45 57.51,31.49 
									59.45,30.9 61.39,30.95 63.32,31.32 65.25,31.53 67.19,31.46 69.13,31.43 71.06,31.5 73,31 74.93,31.06 76.87,30.9 
									78.8,31.39 80.74,31.33 82.67,31.48 84.61,30.89 86.54,31.37 88.48,31.27 90.41,30.85 92.35,31.01 94.28,31.59 96.22,31.46 
									98.15,31.02 100.09,31.53 102.03,30.94 103.96,31.42 105.89,31.18 107.83,30.9 109.77,31.08 111.7,31.38 113.64,31.01 
									115.57,31.62 117.5,31.59 119.44,31.55 121.38,31.51 123.31,31.27 125.25,31.03 127.18,31.05 129.12,31.09 131.05,31.28 
									132.99,30.83 134.92,31.28 136.86,31.16 138.79,31.32 140.73,31.46 142.66,31.45 144.6,31.51 146.53,31.54 148.47,31.59 
																	"/>
							</g>
							<g>
								<polyline class="st2" points="26.55,33.17 28.49,32.79 30.42,33.13 32.36,33.32 34.29,32.54 36.23,32.73 38.16,32.64 
									40.1,33.32 42.03,32.85 43.97,33.22 45.9,32.78 47.84,32.7 49.77,32.6 51.71,32.9 53.64,33.27 55.58,33.03 57.51,32.96 
									59.45,32.6 61.39,32.78 63.32,32.87 65.25,33.31 67.19,32.94 69.13,32.87 71.06,32.63 73,33.23 74.93,32.6 76.87,32.59 
									78.8,33.16 80.74,32.62 82.67,33.08 84.61,33.06 86.54,32.62 88.48,32.82 90.41,32.88 92.35,32.94 94.28,33.13 96.22,32.89 
									98.15,32.75 100.09,33.28 102.03,32.96 103.96,32.98 105.89,33.15 107.83,33.26 109.77,33.28 111.7,32.53 113.64,32.75 
									115.57,33.22 117.5,32.65 119.44,33.24 121.38,32.84 123.31,32.61 125.25,33.03 127.18,32.63 129.12,32.74 131.05,33.23 
									132.99,32.98 134.92,32.81 136.86,33.06 138.79,32.53 140.73,33.1 142.66,32.57 144.6,32.56 146.53,33.05 148.47,32.8 
																	"/>
							</g>
							<g>
								<polyline class="st2" points="26.55,34.8 28.49,34.45 30.42,34.59 32.36,34.23 34.29,34.26 36.23,34.93 38.16,34.67 
									40.1,34.61 42.03,34.77 43.97,34.44 45.9,34.57 47.84,34.92 49.77,34.47 51.71,35.03 53.64,34.66 55.58,34.89 57.51,34.87 
									59.45,34.67 61.39,34.75 63.32,34.49 65.25,34.36 67.19,35.04 69.13,34.32 71.06,34.51 73,34.72 74.93,34.55 76.87,34.3 
									78.8,34.77 80.74,34.54 82.67,34.98 84.61,34.56 86.54,34.24 88.48,34.31 90.41,34.26 92.35,34.66 94.28,34.96 96.22,34.84 
									98.15,34.75 100.09,34.36 102.03,34.82 103.96,34.59 105.89,34.41 107.83,34.35 109.77,34.99 111.7,34.39 113.64,34.83 
									115.57,34.41 117.5,34.24 119.44,34.64 121.38,34.45 123.31,34.63 125.25,34.37 127.18,34.67 129.12,34.3 131.05,35.02 
									132.99,34.63 134.92,34.45 136.86,34.97 138.79,34.61 140.73,34.68 142.66,34.45 144.6,34.3 146.53,34.65 148.47,34.47 
																	"/>
							</g>
							<g>
								<polyline class="st2" points="26.55,36.45 28.49,36.21 30.42,36 32.36,35.97 34.29,36.2 36.23,36.52 38.16,36.28 
									40.1,36.17 42.03,36.56 43.97,36.45 45.9,36.22 47.84,36.62 49.77,36.05 51.71,36.55 53.64,36.56 55.58,36.6 57.51,36.36 
									59.45,36.52 61.39,36.19 63.32,36.38 65.25,36.37 67.19,36.5 69.13,36.22 71.06,36.48 73,36.4 74.93,35.95 76.87,36.22 
									78.8,36.58 80.74,36.33 82.67,36.2 84.61,36.33 86.54,35.95 88.48,36.73 90.41,36.51 92.35,36.29 94.28,36.66 96.22,36.17 
									98.15,35.97 100.09,36.47 102.03,36.66 103.96,36.26 105.89,36.27 107.83,36.21 109.77,36.32 111.7,36.1 113.64,36.27 
									115.57,36.38 117.5,36.14 119.44,36.45 121.38,36.58 123.31,36.53 125.25,36.7 127.18,36.45 129.12,36.69 131.05,36.63 
									132.99,36.42 134.92,36.13 136.86,36.26 138.79,36.68 140.73,36.14 142.66,36.31 144.6,36.07 146.53,36.42 148.47,35.97 
																	"/>
							</g>
							<g>
								<polyline class="st2" points="26.55,38.4 28.49,38.18 30.42,37.94 32.36,38.18 34.29,38.18 36.23,37.93 38.16,38.05 
									40.1,38.37 42.03,37.86 43.97,38.18 45.9,37.89 47.84,38.1 49.77,37.84 51.71,37.78 53.64,37.67 55.58,38.43 57.51,38.37 
									59.45,38.18 61.39,37.83 63.32,38.29 65.25,38.3 67.19,38.27 69.13,37.77 71.06,37.95 73,38.28 74.93,38.15 76.87,38.2 
									78.8,37.65 80.74,38.22 82.67,37.73 84.61,37.66 86.54,38.21 88.48,38.3 90.41,37.96 92.35,37.81 94.28,38.17 96.22,38.39 
									98.15,38.29 100.09,37.97 102.03,38.39 103.96,37.68 105.89,37.84 107.83,38.35 109.77,38.32 111.7,38.04 113.64,38.1 
									115.57,37.74 117.5,38.28 119.44,37.99 121.38,37.86 123.31,38.01 125.25,38.35 127.18,38.44 129.12,37.82 131.05,37.67 
									132.99,37.95 134.92,38.1 136.86,37.73 138.79,38.41 140.73,37.69 142.66,38.08 144.6,37.78 146.53,38.23 148.47,38.08 
																	"/>
							</g>
							<g>
								<polyline class="st2" points="26.55,39.39 28.49,39.43 30.42,39.55 32.36,40.02 34.29,39.8 36.23,39.63 38.16,39.59 
									40.1,39.63 42.03,40.13 43.97,40.07 45.9,39.44 47.84,39.89 49.77,40.1 51.71,39.86 53.64,39.94 55.58,39.89 57.51,40.03 
									59.45,39.85 61.39,39.42 63.32,39.7 65.25,39.52 67.19,40.01 69.13,39.77 71.06,39.77 73,40.08 74.93,40.13 76.87,39.94 
									78.8,39.36 80.74,39.45 82.67,39.99 84.61,39.88 86.54,39.79 88.48,39.4 90.41,39.78 92.35,39.63 94.28,39.44 96.22,39.49 
									98.15,39.5 100.09,39.64 102.03,39.56 103.96,39.94 105.89,40.13 107.83,40.01 109.77,39.44 111.7,39.62 113.64,40.11 
									115.57,39.57 117.5,39.45 119.44,39.86 121.38,39.36 123.31,40.02 125.25,39.57 127.18,39.82 129.12,40.03 131.05,39.94 
									132.99,39.7 134.92,39.72 136.86,39.91 138.79,39.6 140.73,39.94 142.66,39.77 144.6,40.13 146.53,39.44 148.47,39.51 
																	"/>
							</g>
							<g>
								<polyline class="st2" points="26.55,41.21 28.49,41.55 30.42,41.46 32.36,41.48 34.29,41.27 36.23,41.46 38.16,41.21 
									40.1,41.49 42.03,41.64 43.97,41.05 45.9,41.3 47.84,41.25 49.77,41.63 51.71,41.8 53.64,41.52 55.58,41.41 57.51,41.07 
									59.45,41.18 61.39,41.61 63.32,41.47 65.25,41.84 67.19,41.73 69.13,41.55 71.06,41.31 73,41.55 74.93,41.15 76.87,41.68 
									78.8,41.64 80.74,41.27 82.67,41.05 84.61,41.58 86.54,41.17 88.48,41.84 90.41,41.11 92.35,41.39 94.28,41.28 96.22,41.79 
									98.15,41.24 100.09,41.1 102.03,41.6 103.96,41.41 105.89,41.81 107.83,41.8 109.77,41.32 111.7,41.71 113.64,41.19 
									115.57,41.65 117.5,41.52 119.44,41.53 121.38,41.33 123.31,41.51 125.25,41.22 127.18,41.26 129.12,41.6 131.05,41.73 
									132.99,41.22 134.92,41.7 136.86,41.28 138.79,41.06 140.73,41.3 142.66,41.44 144.6,41.49 146.53,41.47 148.47,41.42 
																	"/>
							</g>
							<g>
								<polyline class="st2" points="26.55,43.04 28.49,42.9 30.42,43.5 32.36,42.81 34.29,42.86 36.23,42.95 38.16,43.15 
									40.1,43.07 42.03,42.84 43.97,43.17 45.9,43.26 47.84,42.75 49.77,43.1 51.71,43.01 53.64,43.03 55.58,43.14 57.51,43.53 
									59.45,43.52 61.39,43.18 63.32,43.47 65.25,42.82 67.19,43.31 69.13,43.42 71.06,42.96 73,43.19 74.93,43.21 76.87,43.03 
									78.8,43.34 80.74,43.3 82.67,43.5 84.61,42.76 86.54,43.13 88.48,42.79 90.41,42.9 92.35,43.05 94.28,42.77 96.22,42.77 
									98.15,43.37 100.09,42.95 102.03,42.99 103.96,43.11 105.89,42.88 107.83,42.83 109.77,43.53 111.7,43.44 113.64,43.16 
									115.57,42.88 117.5,43.04 119.44,43.15 121.38,43.37 123.31,43.15 125.25,42.77 127.18,43.26 129.12,43.48 131.05,42.86 
									132.99,43.33 134.92,43.32 136.86,42.85 138.79,42.8 140.73,43.12 142.66,42.94 144.6,42.95 146.53,43.5 148.47,43.37 
																	"/>
							</g>
							<g>
								<polyline class="st2" points="26.76,45.24 28.69,44.86 30.63,44.73 32.56,45.03 34.5,45.13 36.43,45.08 38.37,44.75 
									40.3,44.72 42.24,45.04 44.17,45.18 46.11,44.86 48.04,44.93 49.98,45.37 51.91,44.68 53.85,45.42 55.78,44.82 57.72,44.91 
									59.66,44.7 61.59,45.06 63.52,44.84 65.46,44.69 67.4,44.91 69.33,44.66 71.27,45.3 73.2,45.3 75.14,45.02 77.07,44.69 
									79.01,45.12 80.94,45.13 82.88,45.09 84.81,45.43 86.75,45.06 88.68,44.99 90.62,45.08 92.55,44.78 94.49,44.77 
									96.42,44.86 98.36,45.33 100.29,44.73 102.23,44.95 104.17,44.81 106.1,45.1 108.03,45.44 109.97,45.18 111.91,44.82 
									113.84,44.89 115.78,44.77 117.71,44.72 119.65,45.43 121.58,44.7 123.52,44.74 125.45,45.3 127.39,45.17 129.32,45.42 
									131.26,45.2 133.19,44.99 135.13,45.28 137.06,45 139,45.34 140.93,44.71 142.87,44.98 144.81,44.67 146.74,44.78 
									148.67,44.7 								"/>
							</g>
							<g>
								<polyline class="st2" points="26.69,46.93 28.62,46.66 30.56,46.65 32.49,47.08 34.43,47.3 36.36,46.87 38.3,47 
									40.23,46.98 42.17,47.19 44.1,46.85 46.04,47.28 47.97,46.97 49.91,47.27 51.85,47.03 53.78,46.92 55.71,46.54 57.65,46.92 
									59.59,46.6 61.52,47.11 63.46,46.82 65.39,47.32 67.33,47.19 69.26,46.78 71.2,46.9 73.13,47.14 75.07,46.81 77,47.23 
									78.94,47.02 80.87,47.12 82.81,47.11 84.74,46.92 86.68,46.65 88.61,46.7 90.55,47.29 92.48,46.81 94.42,46.93 96.35,46.9 
									98.29,46.62 100.22,46.63 102.16,47.08 104.1,46.6 106.03,47.34 107.96,46.56 109.9,47.27 111.84,47.2 113.77,46.78 
									115.71,46.64 117.64,47.2 119.58,47.14 121.51,46.54 123.45,47.12 125.38,47.33 127.32,46.93 129.25,46.61 131.19,47.13 
									133.12,47.04 135.06,46.98 136.99,47.22 138.93,46.99 140.86,47.14 142.8,46.59 144.74,46.56 146.67,47.17 148.6,47.29 
																	"/>
							</g>
							<g>
								<polyline class="st2" points="26.69,48.9 28.62,48.76 30.56,48.92 32.49,48.3 34.43,48.3 36.36,48.79 38.3,48.24 
									40.23,48.83 42.17,48.42 44.1,48.43 46.04,48.55 47.97,48.76 49.91,48.58 51.85,48.65 53.78,48.28 55.71,48.78 57.65,48.68 
									59.59,48.65 61.52,48.37 63.46,48.82 65.39,48.93 67.33,48.62 69.26,48.83 71.2,48.26 73.13,48.94 75.07,49.01 77,48.31 
									78.94,48.49 80.87,48.73 82.81,48.34 84.74,48.41 86.68,48.66 88.61,48.37 90.55,48.6 92.48,48.49 94.42,48.88 96.35,48.75 
									98.29,48.81 100.22,48.96 102.16,48.93 104.1,49.03 106.03,48.84 107.96,48.52 109.9,48.43 111.84,48.54 113.77,48.76 
									115.71,48.34 117.64,48.7 119.58,48.92 121.51,48.51 123.45,48.98 125.38,48.93 127.32,48.71 129.25,48.43 131.19,48.84 
									133.12,48.29 135.06,48.64 136.99,49.02 138.93,48.69 140.86,49.01 142.8,48.78 144.74,48.76 146.67,48.46 148.6,48.85 
																	"/>
							</g>
							<g>
								<polyline class="st2" points="26.69,49.99 28.62,50.31 30.56,50.49 32.49,50.01 34.43,50.44 36.36,50.25 38.3,50.36 
									40.23,50.48 42.17,50.53 44.1,50.04 46.04,50.69 47.97,50.28 49.91,50.37 51.85,49.99 53.78,50.59 55.71,50.59 57.65,50.66 
									59.59,50.13 61.52,50.57 63.46,50.35 65.39,50.45 67.33,50.53 69.26,50.58 71.2,50.13 73.13,50.09 75.07,50.44 77,50.2 
									78.94,50.25 80.87,50.27 82.81,50.59 84.74,50.39 86.68,50.34 88.61,50.58 90.55,50.24 92.48,50.55 94.42,50.55 
									96.35,50.57 98.29,50.2 100.22,50.7 102.16,50.52 104.1,50.06 106.03,50.52 107.96,50.55 109.9,50.58 111.84,50.36 
									113.77,50.71 115.71,50.45 117.64,50.73 119.58,50.02 121.51,50.04 123.45,50 125.38,50.67 127.32,50.01 129.25,50.28 
									131.19,50.37 133.12,50.64 135.06,50.72 136.99,49.98 138.93,50.73 140.86,50.14 142.8,50.51 144.74,50.07 146.67,50.14 
									148.6,50.47 								"/>
							</g>
							<g>
								<polyline class="st2" points="26.69,52.35 28.62,52.23 30.56,52.36 32.49,51.65 34.43,52.4 36.36,52 38.3,52.07 
									40.23,51.88 42.17,52.17 44.1,51.8 46.04,51.94 47.97,52.42 49.91,51.65 51.85,52.32 53.78,51.81 55.71,52.43 57.65,52.16 
									59.59,51.76 61.52,52.32 63.46,52.01 65.39,51.94 67.33,51.88 69.26,52.16 71.2,52.21 73.13,51.9 75.07,51.93 77,51.95 
									78.94,52.18 80.87,52.03 82.81,52.28 84.74,52.19 86.68,52.19 88.61,52.17 90.55,52.34 92.48,51.76 94.42,52.15 
									96.35,52.28 98.29,52.32 100.22,52.13 102.16,52.14 104.1,52.04 106.03,52.25 107.96,52.3 109.9,52.09 111.84,51.98 
									113.77,51.78 115.71,52.01 117.64,52.33 119.58,51.95 121.51,51.75 123.45,52.43 125.38,52.37 127.32,51.7 129.25,52.41 
									131.19,51.82 133.12,51.7 135.06,52 136.99,52.32 138.93,51.95 140.86,52.17 142.8,52.32 144.74,52.2 146.67,52.41 
									148.6,52.25 								"/>
							</g>
							<g>
								<polyline class="st2" points="26.69,53.57 28.62,54.08 30.56,53.5 32.49,53.83 34.43,53.7 36.36,53.69 38.3,53.71 
									40.23,53.4 42.17,53.81 44.1,53.82 46.04,53.89 47.97,53.42 49.91,53.8 51.85,53.73 53.78,53.44 55.71,53.68 57.65,53.48 
									59.59,53.96 61.52,53.43 63.46,53.6 65.39,54.09 67.33,53.73 69.26,54 71.2,53.52 73.13,53.67 75.07,53.59 77,53.94 
									78.94,53.76 80.87,54.04 82.81,54.15 84.74,53.48 86.68,53.54 88.61,53.59 90.55,53.5 92.48,53.69 94.42,53.45 96.35,53.4 
									98.29,53.47 100.22,53.65 102.16,54.13 104.1,53.85 106.03,53.59 107.96,53.72 109.9,53.58 111.84,53.73 113.77,53.83 
									115.71,53.59 117.64,54.03 119.58,53.59 121.51,53.77 123.45,54.14 125.38,53.82 127.32,54.06 129.25,53.55 131.19,53.92 
									133.12,54.15 135.06,54.1 136.99,54.06 138.93,53.78 140.86,53.44 142.8,53.54 144.74,53.98 146.67,53.64 148.6,53.48 
																	"/>
							</g>
							<g>
								<polyline class="st2" points="26.69,55.36 28.62,55.33 30.56,55.11 32.49,55.39 34.43,55.13 36.36,55.39 38.3,55.6 
									40.23,55.27 42.17,55.35 44.1,55.15 46.04,55.31 47.97,55.11 49.91,55.42 51.85,55.36 53.78,55.73 55.71,55.16 57.65,55.37 
									59.59,55.18 61.52,55.34 63.46,55.43 65.39,55.49 67.33,55.15 69.26,55.74 71.2,55.14 73.13,55.11 75.07,55.33 77,55.45 
									78.94,55.1 80.87,55.24 82.81,55.82 84.74,55.41 86.68,55.15 88.61,55.46 90.55,55.7 92.48,55.21 94.42,55.08 96.35,55.24 
									98.29,55.47 100.22,55.4 102.16,55.64 104.1,55.09 106.03,55.73 107.96,55.83 109.9,55.76 111.84,55.36 113.77,55.51 
									115.71,55.7 117.64,55.25 119.58,55.55 121.51,55.69 123.45,55.44 125.38,55.35 127.32,55.7 129.25,55.19 131.19,55.31 
									133.12,55.42 135.06,55.83 136.99,55.24 138.93,55.19 140.86,55.06 142.8,55.2 144.74,55.31 146.67,55.32 148.6,55.57 
																	"/>
							</g>
							<g>
								<polyline class="st2" points="26.69,57.47 28.62,57.09 30.56,56.92 32.49,57.36 34.43,57.18 36.36,57.47 38.3,56.83 
									40.23,57.1 42.17,57.54 44.1,56.95 46.04,56.85 47.97,57.34 49.91,57.21 51.85,57.14 53.78,57.01 55.71,57.44 57.65,56.79 
									59.59,57.25 61.52,56.76 63.46,56.96 65.39,57.04 67.33,56.82 69.26,56.92 71.2,57.19 73.13,57.29 75.07,57.36 77,57.07 
									78.94,57.12 80.87,56.9 82.81,57.39 84.74,57.37 86.68,57.05 88.61,57.4 90.55,57.55 92.48,56.79 94.42,57.02 96.35,57.23 
									98.29,57.17 100.22,57.13 102.16,56.84 104.1,57.09 106.03,56.98 107.96,56.77 109.9,56.83 111.84,56.85 113.77,57.17 
									115.71,57.37 117.64,56.77 119.58,56.77 121.51,57 123.45,56.84 125.38,57.07 127.32,56.96 129.25,57.38 131.19,57.41 
									133.12,57.11 135.06,57.41 136.99,56.81 138.93,57.4 140.86,57.18 142.8,56.85 144.74,57.25 146.67,57.21 148.6,57.11 
																	"/>
							</g>
							<g>
								<polyline class="st2" points="26.69,59.03 28.62,59 30.56,58.78 32.49,59.18 34.43,58.87 36.36,58.58 38.3,58.78 40.23,59 
									42.17,58.6 44.1,59.1 46.04,58.94 47.97,58.66 49.91,58.51 51.85,58.95 53.78,58.95 55.71,58.57 57.65,59.22 59.59,58.75 
									61.52,58.98 63.46,58.95 65.39,59.04 67.33,59.13 69.26,59.1 71.2,58.53 73.13,58.47 75.07,59.2 77,58.57 78.94,59.1 
									80.87,58.84 82.81,59.02 84.74,58.46 86.68,59.19 88.61,58.75 90.55,58.71 92.48,59.19 94.42,58.55 96.35,59.03 
									98.29,58.62 100.22,58.64 102.16,58.53 104.1,58.86 106.03,58.61 107.96,59 109.9,59.11 111.84,58.98 113.77,59.08 
									115.71,59.21 117.64,59.26 119.58,58.78 121.51,59.03 123.45,58.72 125.38,59 127.32,58.93 129.25,58.77 131.19,58.64 
									133.12,58.73 135.06,58.85 136.99,59.19 138.93,58.82 140.86,58.97 142.8,58.61 144.74,58.94 146.67,58.9 148.6,58.84 
																	"/>
							</g>
							<g>
								<polyline class="st2" points="26.58,60.75 28.51,60.98 30.45,60.97 32.38,60.48 34.32,60.54 36.25,60.47 38.19,60.67 
									40.12,60.39 42.06,60.86 43.99,60.79 45.93,60.58 47.86,60.4 49.8,60.72 51.73,61.03 53.67,60.37 55.61,61 57.54,60.46 
									59.47,60.38 61.41,60.96 63.35,60.82 65.28,60.9 67.22,60.87 69.15,60.86 71.09,60.92 73.02,60.99 74.96,60.55 76.89,60.78 
									78.83,60.59 80.76,61.04 82.7,61.09 84.63,60.9 86.57,60.46 88.5,60.7 90.44,60.32 92.37,60.7 94.31,61.06 96.24,61.12 
									98.18,60.44 100.11,60.37 102.05,60.33 103.98,60.9 105.92,60.33 107.86,60.92 109.79,60.39 111.72,60.99 113.66,60.48 
									115.6,60.73 117.53,60.33 119.47,60.37 121.4,60.88 123.34,60.89 125.27,61 127.21,60.85 129.14,60.83 131.08,60.98 
									133.01,60.93 134.95,60.45 136.88,60.69 138.82,61.12 140.75,60.59 142.69,60.32 144.62,60.8 146.56,60.45 148.5,60.37 
																	"/>
							</g>
							<g>
								<polyline class="st2" points="26.51,62.62 28.44,62.35 30.38,62.42 32.31,62.43 34.25,62.4 36.18,62.7 38.12,62.74 
									40.05,62.39 41.99,62.92 43.92,62.25 45.86,62.5 47.8,62.37 49.73,62.88 51.66,62.22 53.6,62.75 55.54,62.28 57.47,62.55 
									59.41,62.27 61.34,62.85 63.28,62.85 65.21,62.36 67.15,62.26 69.08,62.31 71.02,62.25 72.95,62.4 74.89,62.65 76.82,62.35 
									78.76,62.98 80.69,62.28 82.63,62.84 84.56,62.73 86.5,62.68 88.43,62.98 90.37,62.65 92.3,62.32 94.24,62.48 96.17,62.91 
									98.11,62.96 100.05,62.96 101.98,62.57 103.91,62.88 105.85,62.34 107.79,62.75 109.72,62.58 111.66,62.27 113.59,62.42 
									115.53,62.88 117.46,62.24 119.4,62.69 121.33,62.96 123.27,62.26 125.2,62.61 127.14,62.88 129.07,62.27 131.01,62.61 
									132.94,62.66 134.88,62.29 136.81,62.53 138.75,62.56 140.69,62.81 142.62,62.27 144.55,62.51 146.49,62.87 148.43,62.44 
																	"/>
							</g>
							<g>
								<polyline class="st2" points="26.51,64.07 28.44,64.35 30.38,64.49 32.31,64.43 34.25,64.23 36.18,64.16 38.12,64.61 
									40.05,64.5 41.99,64.5 43.92,64.56 45.86,64.25 47.8,64.35 49.73,64.61 51.66,64.56 53.6,63.92 55.54,64.17 57.47,64.4 
									59.41,64.4 61.34,64.19 63.28,64.53 65.21,64.03 67.15,64.57 69.08,64.66 71.02,64.69 72.95,64.39 74.89,64.55 76.82,64.2 
									78.76,64.15 80.69,63.97 82.63,64.12 84.56,64.5 86.5,64.4 88.43,64.04 90.37,64.05 92.3,64.33 94.24,64.38 96.17,64.15 
									98.11,64.09 100.05,64.67 101.98,64.24 103.91,64.68 105.85,64.38 107.79,64.27 109.72,64.61 111.66,63.96 113.59,64.22 
									115.53,64.14 117.46,64.51 119.4,64.6 121.33,64.3 123.27,64.61 125.2,64.59 127.14,64.09 129.07,64.43 131.01,64.14 
									132.94,63.96 134.88,64.46 136.81,64.42 138.75,64.33 140.69,64.28 142.62,64.24 144.55,64.08 146.49,64.13 148.43,64.61 
																	"/>
							</g>
							<g>
								<polyline class="st2" points="26.51,66.4 28.44,65.87 30.38,66.22 32.31,66.42 34.25,65.67 36.18,66.01 38.12,65.86 
									40.05,65.64 41.99,65.64 43.92,66.22 45.86,66.14 47.8,66.39 49.73,66.39 51.66,66.39 53.6,66.14 55.54,66.27 57.47,66.19 
									59.41,66.08 61.34,65.72 63.28,65.63 65.21,66.14 67.15,66.15 69.08,65.81 71.02,66.33 72.95,65.68 74.89,65.96 
									76.82,66.12 78.76,65.88 80.69,65.68 82.63,65.77 84.56,66.14 86.5,66.32 88.43,65.65 90.37,66 92.3,65.69 94.24,65.77 
									96.17,65.64 98.11,65.71 100.05,65.97 101.98,66.4 103.91,65.89 105.85,66.09 107.79,66.14 109.72,65.9 111.66,65.81 
									113.59,66.12 115.53,66.39 117.46,66.33 119.4,65.91 121.33,65.66 123.27,65.84 125.2,66.25 127.14,65.94 129.07,66.31 
									131.01,65.74 132.94,66.36 134.88,66.39 136.81,66.23 138.75,65.78 140.69,66.11 142.62,66.23 144.55,66.23 146.49,66.29 
									148.43,65.72 								"/>
							</g>
							<g>
								<polyline class="st2" points="26.51,67.56 28.44,68.05 30.38,67.76 32.31,67.36 34.25,67.93 36.18,67.86 38.12,67.4 
									40.05,67.4 41.99,67.89 43.92,67.4 45.86,67.56 47.8,67.68 49.73,67.4 51.66,67.85 53.6,68.1 55.54,67.9 57.47,67.51 
									59.41,67.97 61.34,67.88 63.28,67.63 65.21,68.02 67.15,67.74 69.08,67.5 71.02,68.05 72.95,67.48 74.89,67.92 76.82,67.58 
									78.76,67.67 80.69,67.91 82.63,67.42 84.56,67.82 86.5,68.09 88.43,68.11 90.37,67.55 92.3,67.96 94.24,67.68 96.17,67.47 
									98.11,68.01 100.05,67.79 101.98,67.44 103.91,67.8 105.85,67.34 107.79,67.91 109.72,67.58 111.66,68.1 113.59,67.4 
									115.53,67.33 117.46,67.97 119.4,67.72 121.33,67.46 123.27,67.93 125.2,68.12 127.14,67.93 129.07,67.42 131.01,67.81 
									132.94,68.07 134.88,67.33 136.81,67.71 138.75,67.59 140.69,68.12 142.62,67.66 144.55,67.82 146.49,67.97 148.43,67.67 
																	"/>
							</g>
							<g>
								<polyline class="st2" points="26.51,69.83 28.44,69.36 30.38,69.29 32.31,69.63 34.25,69.36 36.18,69.22 38.12,69.65 
									40.05,69.07 41.99,69.75 43.92,69.65 45.86,69.15 47.8,69.43 49.73,69.27 51.66,69.19 53.6,69.55 55.54,69.24 57.47,69.2 
									59.41,69.04 61.34,69.41 63.28,69.61 65.21,69.04 67.15,69.62 69.08,69.06 71.02,69.27 72.95,69.6 74.89,69.09 76.82,69.17 
									78.76,69.59 80.69,69.54 82.63,69.44 84.56,69.04 86.5,69.61 88.43,69.58 90.37,69.42 92.3,69.75 94.24,69.53 96.17,69.55 
									98.11,69.17 100.05,69.44 101.98,69.56 103.91,69.21 105.85,69.37 107.79,69.22 109.72,69.74 111.66,69.15 113.59,69.54 
									115.53,69.5 117.46,69.56 119.4,69.73 121.33,69.71 123.27,69.62 125.2,69.78 127.14,69.72 129.07,69.39 131.01,69.08 
									132.94,69.58 134.88,69.43 136.81,69.2 138.75,69.49 140.69,69.08 142.62,69.27 144.55,69.63 146.49,69.32 148.43,69.28 
																	"/>
							</g>
							<g>
								<polyline class="st2" points="26.51,71.01 28.44,71.39 30.38,71.25 32.31,70.78 34.25,71.42 36.18,71.44 38.12,71.04 
									40.05,71.09 41.99,71.37 43.92,71.01 45.86,70.8 47.8,70.77 49.73,70.77 51.66,70.89 53.6,70.85 55.54,70.98 57.47,71.13 
									59.41,70.91 61.34,70.75 63.28,71.32 65.21,71.3 67.15,70.76 69.08,70.77 71.02,71.11 72.95,71.07 74.89,71.2 76.82,71.45 
									78.76,71.32 80.69,71.28 82.63,70.98 84.56,71.53 86.5,71.44 88.43,71.49 90.37,71.19 92.3,71.4 94.24,70.87 96.17,70.95 
									98.11,70.83 100.05,70.96 101.98,71.01 103.91,70.97 105.85,71.5 107.79,70.84 109.72,70.98 111.66,71.49 113.59,70.87 
									115.53,71.07 117.46,70.85 119.4,71.23 121.33,71.01 123.27,71.36 125.2,70.74 127.14,70.77 129.07,71.49 131.01,71.47 
									132.94,71.2 134.88,70.86 136.81,70.96 138.75,71.16 140.69,71.45 142.62,71.33 144.55,70.75 146.49,70.84 148.43,71.18 
																	"/>
							</g>
							<g>
								<polyline class="st2" points="26.51,72.77 28.44,73.1 30.38,73.1 32.31,72.72 34.25,72.43 36.18,73.14 38.12,72.62 
									40.05,72.79 41.99,73.03 43.92,72.81 45.86,72.52 47.8,73.16 49.73,73.02 51.66,72.72 53.6,72.55 55.54,73.08 57.47,72.9 
									59.41,72.9 61.34,73.04 63.28,73.11 65.21,72.81 67.15,73.15 69.08,72.96 71.02,72.61 72.95,72.54 74.89,72.69 76.82,72.49 
									78.76,72.96 80.69,72.57 82.63,73.09 84.56,72.54 86.5,72.48 88.43,73.13 90.37,72.54 92.3,72.91 94.24,73.09 96.17,72.66 
									98.11,72.81 100.05,73.05 101.98,73.18 103.91,72.74 105.85,72.44 107.79,72.89 109.72,72.71 111.66,72.68 113.59,72.93 
									115.53,72.8 117.46,72.7 119.4,72.87 121.33,73.11 123.27,72.44 125.2,73.05 127.14,72.69 129.07,72.94 131.01,73.09 
									132.94,72.83 134.88,73.19 136.81,72.68 138.75,73.15 140.69,72.63 142.62,72.71 144.55,73.1 146.49,72.78 148.43,72.86 
																	"/>
							</g>
							<g>
								<polyline class="st2" points="26.51,74.32 28.44,74.91 30.38,74.3 32.31,74.85 34.25,74.27 36.18,74.58 38.12,74.33 
									40.05,74.25 41.99,74.26 43.92,74.41 45.86,74.56 47.8,74.78 49.73,74.82 51.66,74.92 53.6,74.75 55.54,74.21 57.47,74.56 
									59.41,74.3 61.34,74.34 63.28,74.25 65.21,74.58 67.15,74.68 69.08,74.94 71.02,74.79 72.95,74.67 74.89,74.22 76.82,74.94 
									78.76,74.46 80.69,74.55 82.63,74.25 84.56,74.39 86.5,74.19 88.43,74.32 90.37,74.73 92.3,74.67 94.24,74.22 96.17,74.66 
									98.11,74.33 100.05,74.16 101.98,74.35 103.91,74.43 105.85,74.61 107.79,74.32 109.72,74.78 111.66,74.82 113.59,74.9 
									115.53,74.29 117.46,74.74 119.4,74.41 121.33,74.14 123.27,74.19 125.2,74.68 127.14,74.59 129.07,74.83 131.01,74.41 
									132.94,74.35 134.88,74.41 136.81,74.49 138.75,74.2 140.69,74.53 142.62,74.65 144.55,74.74 146.49,74.28 148.43,74.25 
																	"/>
							</g>
							<g>
								<polyline class="st2" points="26.4,76.38 28.33,76.6 30.27,76.02 32.2,76.51 34.14,76.25 36.07,76.62 38.01,76.37 
									39.94,76.62 41.88,76.49 43.81,76.54 45.75,76.02 47.68,76.11 49.62,76.27 51.55,76.79 53.49,76.48 55.42,76.66 
									57.36,76.63 59.3,76.64 61.23,76.42 63.17,76.28 65.1,76.65 67.04,76.16 68.97,76.41 70.91,76.38 72.84,76.64 74.78,76.73 
									76.71,76.06 78.65,76.73 80.58,76.35 82.52,76.07 84.45,76.46 86.39,76.47 88.32,76.68 90.26,76.4 92.19,76.41 94.13,76.22 
									96.06,76.04 98,76.68 99.93,76.06 101.87,76.16 103.81,76.64 105.74,76.09 107.67,76.16 109.61,76.63 111.55,76.64 
									113.48,76.14 115.42,76.22 117.35,76.22 119.29,76.1 121.22,76.01 123.16,76.7 125.09,76.22 127.03,76.45 128.96,76.42 
									130.9,76.61 132.83,76.39 134.77,76.77 136.7,76.64 138.64,76.33 140.57,76.69 142.51,76.77 144.45,76.56 146.38,76.67 
									148.31,76.07 								"/>
							</g>
							<g>
								<polyline class="st2" points="26.33,78.15 28.26,78.57 30.2,78.41 32.13,78.13 34.07,78.5 36,78.03 37.94,78.07 
									39.87,78.68 41.81,78.25 43.74,77.92 45.68,78.08 47.61,78.56 49.55,77.93 51.49,78 53.42,78.68 55.35,78.63 57.29,78.34 
									59.23,78.44 61.16,78.22 63.1,78.62 65.03,78.48 66.97,78.37 68.9,78.67 70.84,78.1 72.77,78.57 74.71,78.04 76.64,78.68 
									78.58,78.06 80.51,78.47 82.45,78.47 84.38,78.65 86.32,78.47 88.25,78.65 90.19,78.32 92.12,78.5 94.06,78.15 95.99,77.9 
									97.93,78.48 99.86,78.18 101.8,78.69 103.74,78.1 105.67,78.05 107.6,78.02 109.54,78.65 111.48,78.33 113.41,78.41 
									115.35,78.29 117.28,78.13 119.22,78.24 121.15,78.49 123.09,78.13 125.02,78.31 126.96,78.69 128.89,78.69 130.83,78.04 
									132.76,77.91 134.7,78.11 136.63,78.39 138.57,78.04 140.5,78.07 142.44,78.11 144.38,78.16 146.31,78.29 148.24,78.47 
																	"/>
							</g>
							<g>
								<polyline class="st2" points="26.33,79.85 28.26,80.01 30.2,80.19 32.13,79.81 34.07,79.8 36,80.27 37.94,79.83 
									39.87,79.95 41.81,79.81 43.74,79.97 45.68,80.03 47.61,80.29 49.55,80.35 51.49,79.98 53.42,79.99 55.35,80.01 
									57.29,80.02 59.23,79.93 61.16,79.99 63.1,80.09 65.03,80.37 66.97,80.31 68.9,79.78 70.84,79.83 72.77,79.86 74.71,79.75 
									76.64,80.18 78.58,80.13 80.51,80.16 82.45,79.63 84.38,79.82 86.32,79.66 88.25,80.38 90.19,79.82 92.12,79.75 
									94.06,79.92 95.99,79.71 97.93,79.65 99.86,79.78 101.8,80.03 103.74,79.95 105.67,79.67 107.6,79.87 109.54,79.66 
									111.48,79.75 113.41,79.86 115.35,79.76 117.28,80.39 119.22,79.9 121.15,80.21 123.09,79.66 125.02,79.76 126.96,80.31 
									128.89,80.2 130.83,80.24 132.76,80.02 134.7,80.19 136.63,80.09 138.57,79.83 140.5,79.71 142.44,80.34 144.38,79.6 
									146.31,80.07 148.24,79.9 								"/>
							</g>
							<g>
								<polyline class="st2" points="26.33,81.48 28.26,81.85 30.2,81.71 32.13,81.83 34.07,81.65 36,81.69 37.94,81.34 
									39.87,82.08 41.81,81.86 43.74,81.9 45.68,81.48 47.61,81.99 49.55,81.73 51.49,81.97 53.42,81.73 55.35,81.34 57.29,81.88 
									59.23,82.08 61.16,82.05 63.1,81.31 65.03,82.01 66.97,81.96 68.9,81.37 70.84,81.66 72.77,81.46 74.71,81.96 76.64,82.01 
									78.58,81.32 80.51,81.99 82.45,81.7 84.38,81.58 86.32,81.32 88.25,81.66 90.19,81.8 92.12,81.72 94.06,81.42 95.99,81.69 
									97.93,82.09 99.86,81.57 101.8,81.85 103.74,81.44 105.67,81.86 107.6,81.84 109.54,81.57 111.48,81.62 113.41,81.79 
									115.35,81.86 117.28,81.83 119.22,81.46 121.15,81.34 123.09,81.93 125.02,81.7 126.96,81.54 128.89,82.08 130.83,82.08 
									132.76,81.5 134.7,81.57 136.63,81.95 138.57,81.55 140.5,82.04 142.44,82.01 144.38,81.72 146.31,81.74 148.24,81.91 
																	"/>
							</g>
							<g>
								<polyline class="st2" points="26.33,83.53 28.26,83.31 30.2,83.19 32.13,83.57 34.07,83.41 36,83.51 37.94,83.56 
									39.87,83.21 41.81,83.79 43.74,83.51 45.68,83.38 47.61,83.2 49.55,83.55 51.49,83.1 53.42,83.74 55.35,83.15 57.29,83.53 
									59.23,83.08 61.16,83.39 63.1,83.79 65.03,83.47 66.97,83.16 68.9,83.21 70.84,83.64 72.77,83.55 74.71,83.06 76.64,83.31 
									78.58,83.78 80.51,83.79 82.45,83.54 84.38,83.66 86.32,83.59 88.25,83.53 90.19,83.6 92.12,83.77 94.06,83.63 95.99,83.53 
									97.93,83.7 99.86,83.01 101.8,83.33 103.74,83.68 105.67,83.38 107.6,83.38 109.54,83.55 111.48,83.54 113.41,83.37 
									115.35,83.77 117.28,83.81 119.22,83.03 121.15,83.58 123.09,83.33 125.02,83.37 126.96,83.48 128.89,83.73 130.83,83.31 
									132.76,83.45 134.7,83.76 136.63,83.53 138.57,83.28 140.5,83.44 142.44,83.57 144.38,83.03 146.31,83.75 148.24,83.62 
																	"/>
							</g>
							<g>
								<polyline class="st2" points="26.33,84.85 28.26,84.85 30.2,85.04 32.13,84.96 34.07,85.35 36,85.06 37.94,85.37 
									39.87,85.4 41.81,84.88 43.74,84.87 45.68,84.75 47.61,85.17 49.55,85.14 51.49,84.84 53.42,85.17 55.35,85.23 57.29,84.73 
									59.23,84.86 61.16,85.48 63.1,85.39 65.03,85.3 66.97,85.41 68.9,84.87 70.84,84.81 72.77,85.33 74.71,85.16 76.64,85 
									78.58,84.96 80.51,84.74 82.45,85.11 84.38,84.99 86.32,85.49 88.25,85.45 90.19,85.39 92.12,84.72 94.06,85.01 
									95.99,85.29 97.93,84.83 99.86,84.9 101.8,84.76 103.74,85.5 105.67,85.22 107.6,85.47 109.54,85.31 111.48,85.41 
									113.41,84.75 115.35,85.45 117.28,84.97 119.22,85.43 121.15,84.94 123.09,84.91 125.02,84.83 126.96,85.51 128.89,84.8 
									130.83,85.49 132.76,84.91 134.7,85.26 136.63,85.18 138.57,85.14 140.5,85.04 142.44,85.37 144.38,84.85 146.31,84.93 
									148.24,84.79 								"/>
							</g>
							<g>
								<polyline class="st2" points="26.33,86.44 28.26,87.13 30.2,86.47 32.13,86.49 34.07,86.43 36,86.78 37.94,87.2 
									39.87,86.46 41.81,87.03 43.74,86.57 45.68,86.48 47.61,86.63 49.55,86.48 51.49,86.48 53.42,86.84 55.35,86.99 
									57.29,87.06 59.23,86.85 61.16,86.88 63.1,86.57 65.03,87.19 66.97,86.81 68.9,87.03 70.84,87.15 72.77,87.21 74.71,86.92 
									76.64,86.63 78.58,87.1 80.51,86.46 82.45,86.81 84.38,87.21 86.32,87.1 88.25,86.56 90.19,86.59 92.12,87.17 94.06,87.09 
									95.99,87.03 97.93,87.07 99.86,86.61 101.8,87.21 103.74,87.07 105.67,87.04 107.6,86.51 109.54,87 111.48,87.09 
									113.41,86.74 115.35,86.85 117.28,86.99 119.22,86.64 121.15,87.14 123.09,87.09 125.02,86.75 126.96,86.44 128.89,87.05 
									130.83,86.93 132.76,87.04 134.7,86.69 136.63,87.14 138.57,86.84 140.5,86.51 142.44,86.65 144.38,87.15 146.31,86.51 
									148.24,86.41 								"/>
							</g>
							<g>
								<polyline class="st2" points="26.33,88.52 28.26,88.28 30.2,88.45 32.13,88.84 34.07,88.71 36,88.79 37.94,88.26 
									39.87,88.72 41.81,88.42 43.74,88.44 45.68,88.76 47.61,88.19 49.55,88.21 51.49,88.83 53.42,88.63 55.35,88.76 
									57.29,88.79 59.23,88.88 61.16,88.18 63.1,88.62 65.03,88.56 66.97,88.62 68.9,88.68 70.84,88.42 72.77,88.81 74.71,88.68 
									76.64,88.25 78.58,88.14 80.51,88.65 82.45,88.41 84.38,88.85 86.32,88.64 88.25,88.65 90.19,88.3 92.12,88.58 94.06,88.92 
									95.99,88.79 97.93,88.39 99.86,88.65 101.8,88.51 103.74,88.77 105.67,88.12 107.6,88.15 109.54,88.43 111.48,88.25 
									113.41,88.45 115.35,88.54 117.28,88.29 119.22,88.55 121.15,88.75 123.09,88.16 125.02,88.46 126.96,88.4 128.89,88.23 
									130.83,88.38 132.76,88.58 134.7,88.83 136.63,88.66 138.57,88.64 140.5,88.39 142.44,88.24 144.38,88.27 146.31,88.23 
									148.24,88.64 								"/>
							</g>
							<g>
								<polyline class="st2" points="26.33,89.82 28.26,90.49 30.2,90.07 32.13,89.89 34.07,89.98 36,90.19 37.94,90.34 
									39.87,90.52 41.81,90.13 43.74,90.13 45.68,90.42 47.61,90.27 49.55,90.42 51.49,90.02 53.42,90.32 55.35,89.95 
									57.29,89.88 59.23,89.97 61.16,90.25 63.1,90.32 65.03,90.16 66.97,90.09 68.9,90.1 70.84,90.34 72.77,90.38 74.71,89.89 
									76.64,89.86 78.58,90.56 80.51,90.43 82.45,90.36 84.38,90.38 86.32,90.45 88.25,89.82 90.19,90.05 92.12,90.15 94.06,90.6 
									95.99,90.32 97.93,90.16 99.86,90.36 101.8,90.1 103.74,90.13 105.67,90.34 107.6,90.54 109.54,90.39 111.48,89.95 
									113.41,90.18 115.35,90.05 117.28,90.34 119.22,90.46 121.15,90.46 123.09,90.31 125.02,90.13 126.96,89.86 128.89,89.9 
									130.83,90.56 132.76,90.2 134.7,90.02 136.63,90.27 138.57,90.45 140.5,89.83 142.44,90.23 144.38,90.49 146.31,90.42 
									148.24,90.53 								"/>
							</g>
						</g>
					</g>
				</g>
			</g>
		</g>
		<g>
			<path class="st3" d="M34.69,55.47c0-14.52,24.41-26.29,54.52-26.29s54.52,11.77,54.52,26.29s-24.41,26.3-54.52,26.3
				C59.1,81.76,34.69,69.99,34.69,55.47z M3.65,55.09c0-28.28,38.24-51.2,85.41-51.2s85.41,22.92,85.41,51.2s-38.24,51.2-85.41,51.2
				S3.65,83.36,3.65,55.09z"/>
			<path class="st4" d="M34.69,55.47c0-14.52,24.41-26.29,54.52-26.29s54.52,11.77,54.52,26.29s-24.41,26.3-54.52,26.3
				C59.1,81.76,34.69,69.99,34.69,55.47z M3.65,55.09c0-28.28,38.24-51.2,85.41-51.2s85.41,22.92,85.41,51.2s-38.24,51.2-85.41,51.2
				S3.65,83.36,3.65,55.09z"/>
		</g>
		<g>
			<g>
				<path class="st5" d="M38.4,28.75c0.6,0.19,1.16,0.58,1.67,1.19c1.43,1.7,0.91,3.58-1.54,5.64l-7.13,5.98l0.52,0.62l7.75-6.5
					c2.45-2.06,2.97-3.94,1.54-5.64C40.39,29.06,39.45,28.63,38.4,28.75z"/>
			</g>
			<g>
				<path class="st5" d="M30.01,36.63l6.41-5.38c0.42-0.35,0.81-0.57,1.18-0.68c-0.67-0.35-1.44-0.16-2.33,0.58l-6.41,5.38
					l2.31,2.75l0.62-0.52L30.01,36.63z"/>
			</g>
			<g>
				<path class="st5" d="M36.34,28.89c0.43-0.17,0.85-0.25,1.25-0.25c0.29-1.04,0.1-1.96-0.57-2.76c-0.68-0.81-1.5-1.21-2.47-1.22
					c-0.11,0-0.23,0-0.34,0.01c0.63,0.17,1.18,0.54,1.66,1.11C36.62,26.66,36.78,27.7,36.34,28.89z"/>
			</g>
			<g>
				<path class="st5" d="M26.6,32.56l6.34-5.32c0.3-0.25,0.61-0.42,0.91-0.51c-0.2-0.1-0.42-0.16-0.66-0.17
					c-0.47-0.01-0.93,0.18-1.39,0.57l-6.34,5.32l2.2,2.62l0.62-0.52L26.6,32.56z"/>
			</g>
		</g>
		<g>
			<path class="st5" d="M46.93,26.29c-0.72-1.19-0.83-2.46-0.35-3.81c0.48-1.35,1.48-2.48,3-3.39c1.38-0.83,2.74-1.19,4.09-1.06
				c0.08,0.01,0.16,0.02,0.25,0.03c-0.41-0.16-0.87-0.26-1.36-0.31c-1.34-0.12-2.7,0.23-4.09,1.06c-1.51,0.91-2.51,2.04-3,3.39
				c-0.49,1.35-0.37,2.62,0.35,3.81c0.74,1.23,1.8,1.95,3.19,2.14c0.03,0,0.05,0,0.08,0.01C48.2,27.82,47.48,27.2,46.93,26.29z"/>
		</g>
		<g>
			<path class="st5" d="M54.69,16.12c1.37,0.47,2.45,1.34,3.22,2.63c1.07,1.78,1.21,3.67,0.41,5.65c-0.7,1.73-2.01,3.17-3.91,4.31
				c-1.92,1.16-3.82,1.63-5.69,1.43c-0.15-0.01-0.31-0.04-0.45-0.06c0.49,0.17,1.01,0.28,1.57,0.34c1.87,0.2,3.76-0.28,5.68-1.43
				c1.9-1.14,3.21-2.58,3.91-4.31c0.8-1.98,0.67-3.86-0.41-5.65C58.06,17.41,56.61,16.44,54.69,16.12z"/>
		</g>
		<g>
			<polygon class="st5" points="76.37,12.56 70.4,13.61 72.27,24.24 71,24.47 71.14,25.27 73.21,24.9 71.34,14.27 77.31,13.21 
				76.98,11.35 76.18,11.49 			"/>
		</g>
		<g>
			<g>
				<polygon class="st5" points="62.73,15.26 67.9,14.34 68.04,15.14 62.87,16.05 				"/>
				<path class="st5" d="M65.38,15.2"/>
			</g>
		</g>
		<g>
			<g>
				<polygon class="st5" points="83.31,11.98 88.57,11.98 88.57,12.79 83.31,12.79 				"/>
				<path class="st5" d="M85.94,12.39"/>
			</g>
		</g>
		<g>
			<polygon class="st5" points="96.74,11.98 90.67,11.98 90.67,22.78 89.38,22.78 89.38,23.59 91.48,23.59 91.48,12.79 97.55,12.79 
				97.55,10.9 96.74,10.9 			"/>
		</g>
		<g>
			<polygon class="st5" points="106.56,13.17 105.99,16.38 106.8,16.52 107.22,14.11 117.75,15.97 118.08,14.11 117.28,13.96 
				117.09,15.03 			"/>
		</g>
		<g>
			<polygon class="st5" points="115.7,25.75 103.42,23.58 103.27,24.38 116.36,26.69 116.69,24.83 115.89,24.69 			"/>
		</g>
		<g>
			<polygon class="st5" points="105.67,18.25 105.01,21.94 105.82,22.08 106.32,19.19 113.65,20.48 113.98,18.62 113.17,18.47 
				112.99,19.54 			"/>
		</g>
		<g>
			<path class="st5" d="M130.02,25.16l-0.32,0.75l4.33,1.84c0.23-0.17,0.46-0.37,0.68-0.6L130.02,25.16z"/>
		</g>
		<g>
			<path class="st5" d="M135.99,23.13c-0.66-1.82-1.95-3.13-3.85-3.94c-1.48-0.63-2.88-0.79-4.19-0.48
				c-1.52,0.36-2.57,1.22-3.15,2.58c-0.56,1.31-0.51,2.59,0.14,3.83c0.01,0.02,0.03,0.05,0.04,0.07c-0.25-0.93-0.17-1.87,0.25-2.84
				c0.58-1.37,1.63-2.23,3.15-2.58c1.31-0.31,2.71-0.15,4.19,0.48c1.9,0.81,3.19,2.12,3.85,3.94l2.19-0.14
				c-0.13-0.4-0.29-0.78-0.46-1.15c0.01,0.03,0.02,0.06,0.03,0.09L135.99,23.13z"/>
		</g>
		<g>
			<path class="st5" d="M133.79,30.35c-1.86,0.59-3.91,0.41-6.16-0.54c-2.05-0.87-3.55-2.12-4.48-3.75
				c-0.07-0.13-0.14-0.25-0.2-0.38c0.15,0.48,0.36,0.97,0.63,1.44c0.93,1.63,2.43,2.88,4.48,3.75c2.25,0.96,4.3,1.14,6.16,0.54
				c1.86-0.59,3.19-1.84,4-3.74l0.07-0.18l-0.77-0.33C136.7,28.76,135.46,29.82,133.79,30.35z"/>
		</g>
		<g>
			<polygon class="st5" points="149.41,32.65 149.6,31.33 143.34,34.38 144.35,35.11 			"/>
		</g>
		<g>
			<polygon class="st5" points="151.59,31.54 149.69,44.85 148.15,43.73 148.01,44.63 149.87,45.99 151.9,31.77 			"/>
		</g>
		<g>
			<polygon class="st5" points="141.4,35.31 138.55,36.75 137.69,36.13 136.87,36.53 138.73,37.89 141.58,36.45 148.18,41.24 
				148.32,40.34 			"/>
		</g>
		<g>
			<path class="st6" d="M39.76,30.05c-0.5-0.62-1.05-1.03-1.65-1.22c-0.26-0.08-0.53-0.13-0.8-0.13c-0.4-0.01-0.82,0.07-1.26,0.23
				c0.46-1.18,0.32-2.22-0.41-3.12c-0.47-0.58-1.02-0.96-1.64-1.14c-0.26-0.07-0.52-0.12-0.81-0.13c-0.97-0.03-1.95,0.36-2.95,1.17
				l-7.97,6.46l7.99,9.87l0.63-0.51l7.23-5.85C40.61,33.65,41.16,31.77,39.76,30.05z M25.1,32.31l6.43-5.21
				c0.47-0.38,0.94-0.57,1.4-0.55c0.24,0.01,0.46,0.07,0.66,0.18c0.19,0.1,0.37,0.25,0.53,0.45c0.3,0.37,0.41,0.81,0.32,1.32
				c-0.09,0.51-0.37,0.94-0.82,1.31l-5.73,4.64l-0.63,0.51L25.1,32.31z M28.44,36.44l6.5-5.26c0.89-0.72,1.67-0.9,2.34-0.54
				c0.22,0.12,0.43,0.3,0.62,0.54c0.73,0.9,0.41,1.9-0.95,3.01l-5.61,4.54l-0.63,0.51L28.44,36.44z"/>
		</g>
		<g>
			<g>
				<path class="st6" d="M53.66,28.88c1.9-1.14,3.21-2.58,3.91-4.31c0.8-1.98,0.67-3.86-0.41-5.65c-0.77-1.29-1.85-2.16-3.22-2.63
					c-0.49-0.16-1.01-0.28-1.57-0.34c-1.87-0.21-3.76,0.25-5.65,1.39c-1.88,1.13-3.18,2.58-3.89,4.34
					c-0.81,2.01-0.69,3.89,0.36,5.63c0.99,1.65,2.43,2.62,4.33,2.93c0.15,0.02,0.3,0.04,0.45,0.06
					C49.84,30.51,51.73,30.03,53.66,28.88z M45.07,26.18c-0.72-1.19-0.83-2.46-0.35-3.81c0.48-1.35,1.48-2.48,3-3.39
					c1.38-0.83,2.74-1.19,4.09-1.06c0.49,0.04,0.95,0.15,1.36,0.31c0.89,0.34,1.6,0.95,2.12,1.81c0.73,1.22,0.87,2.49,0.4,3.81
					c-0.47,1.32-1.48,2.44-3.02,3.37c-1.52,0.92-2.97,1.28-4.33,1.11c-0.02,0-0.05,0-0.08-0.01C46.87,28.13,45.81,27.42,45.07,26.18
					z"/>
			</g>
			<g>
				<polygon class="st6" points="69.64,13.5 75.61,12.44 75.42,11.38 75.28,10.58 61.26,13.05 61.59,14.91 62.39,14.77 67.56,13.86 
					67.7,14.66 69.44,24.5 70.24,24.35 71.51,24.13 				"/>
			</g>
			<g>
				<polygon class="st6" points="89.94,11.74 96,11.74 96,10.65 96,9.84 81.77,9.84 81.77,11.74 82.58,11.74 87.83,11.74 
					87.83,12.55 87.83,22.53 88.65,22.53 89.94,22.53 				"/>
			</g>
			<g>
				<polygon class="st6" points="115.21,24.32 115.35,23.52 105.14,21.72 104.34,21.58 104.99,17.88 112.31,19.17 112.5,18.11 
					112.64,17.31 106.12,16.16 105.32,16.01 105.88,12.81 116.42,14.66 116.6,13.6 116.75,12.8 104.14,10.57 101.94,23.08 
					102.74,23.22 115.02,25.38 				"/>
			</g>
			<g>
				<path class="st6" d="M127.06,29.3c2.25,0.96,4.3,1.14,6.16,0.54c1.67-0.53,2.91-1.59,3.73-3.18c0.09-0.18,0.18-0.37,0.27-0.56
					l0.07-0.18l-7.86-3.34l-0.74,1.74l0.75,0.32l4.69,1.99c-0.22,0.22-0.44,0.42-0.68,0.6c-1.52,1.14-3.4,1.24-5.64,0.29
					c-1.61-0.68-2.75-1.63-3.41-2.84c-0.01-0.02-0.03-0.05-0.04-0.07c-0.65-1.24-0.7-2.52-0.14-3.83c0.58-1.37,1.63-2.23,3.15-2.58
					c1.31-0.31,2.71-0.14,4.19,0.49c1.9,0.81,3.19,2.12,3.85,3.94l2.19-0.14c-0.01-0.03-0.02-0.06-0.03-0.09
					c-0.86-2.54-2.55-4.35-5.1-5.42c-2.13-0.9-4.11-1.12-5.95-0.66c-2.09,0.53-3.54,1.74-4.33,3.61c-0.75,1.77-0.69,3.52,0.17,5.25
					c0.06,0.13,0.13,0.25,0.2,0.38C123.51,27.18,125,28.43,127.06,29.3z"/>
			</g>
			<g>
				<path class="st6" d="M151.14,30.92l0.13-0.91l-2.14-1.56l-12.89,6.32l1.01,0.73l0.86,0.62l2.85-1.44l6.92,5.03l-0.14,0.9
					l-0.35,2.25l0.32,0.23l1.54,1.12L151.14,30.92z M149.16,30.7l-0.19,1.32l-0.81,5.56l-4.25-3.09l-1.01-0.73L149.16,30.7z"/>
			</g>
		</g>
		<g>
			<path class="st5" d="M28.08,80.46c-1.26-0.35-2.55-1.04-3.87-2.08c-1.86-1.45-3.04-3.12-3.54-5c-0.04-0.15-0.07-0.29-0.1-0.43
				c0.02,0.53,0.1,1.07,0.25,1.63c0.5,1.89,1.68,3.55,3.54,5c1.32,1.03,2.61,1.73,3.87,2.08c1.26,0.35,2.61,0.38,4.05,0.09
				l-0.48-1.14C30.48,80.83,29.24,80.78,28.08,80.46z"/>
		</g>
		<g>
			<path class="st5" d="M27.38,68.4c1.49-0.03,2.97,0.52,4.42,1.65c1.91,1.49,2.96,3.22,3.14,5.18l2.53-0.34
				c0-0.6-0.05-1.18-0.16-1.74c0.01,0.18,0.01,0.36,0.01,0.54l-2.53,0.34c-0.18-1.96-1.23-3.69-3.14-5.18
				c-1.45-1.13-2.92-1.68-4.42-1.65c-1.49,0.03-2.69,0.62-3.59,1.77c-0.93,1.19-1.23,2.5-0.89,3.94c0,0.02,0.01,0.04,0.02,0.07
				c0-1,0.34-1.94,1.02-2.8C24.69,69.02,25.89,68.43,27.38,68.4z"/>
		</g>
		<g>
			<path class="st5" d="M39.87,86.32c-0.04-0.49,0.06-0.98,0.31-1.47l3.85-7.55l-0.76-0.39L39.8,83.7
				C39.35,84.59,39.38,85.46,39.87,86.32z"/>
		</g>
		<g>
			<path class="st5" d="M51.03,90.02c-0.63,1.23-1.74,1.93-3.33,2.08c-1.63,0.17-3.47-0.26-5.51-1.3c-2.04-1.04-3.48-2.28-4.32-3.71
				c-0.09-0.16-0.18-0.32-0.25-0.47c0.09,0.53,0.3,1.07,0.62,1.62c0.84,1.43,2.28,2.67,4.32,3.71c2.04,1.04,3.88,1.47,5.51,1.3
				c1.59-0.15,2.7-0.85,3.33-2.08l4.09-8.03l-0.76-0.39L51.03,90.02z"/>
		</g>
		<g>
			<polygon class="st5" points="69.66,98.62 57.87,95.8 57.66,96.63 70.29,99.65 70.77,97.72 69.94,97.52 			"/>
		</g>
		<g>
			<g>
				<polygon class="st5" points="61.88,84.32 62.71,84.53 60.18,94.69 59.35,94.48 				"/>
				<path class="st5" d="M61.03,89.5"/>
			</g>
		</g>
		<g>
			<polygon class="st5" points="77.22,99.62 75.87,99.48 75.79,100.32 77.98,100.55 79.37,87.31 78.52,87.22 			"/>
		</g>
		<g>
			<polygon class="st5" points="97.35,97.53 88.03,87.52 87.97,87.52 97.35,97.59 			"/>
		</g>
		<g>
			<polygon class="st5" points="99.55,99.98 96.87,99.98 97.66,100.84 100.41,100.84 100.41,87.52 99.55,87.52 			"/>
		</g>
		<g>
			<polygon class="st5" points="86.64,99.98 85.29,99.98 85.29,100.84 87.5,100.84 87.5,89.98 86.64,89.07 			"/>
		</g>
		<g>
			<polygon class="st5" points="111.83,88.12 110.98,87.02 108.71,93.96 110,93.74 			"/>
		</g>
		<g>
			<polygon class="st5" points="112.58,85.67 121.24,96.8 119.27,97.14 119.85,97.91 122.23,97.49 112.98,85.6 			"/>
		</g>
		<g>
			<polygon class="st5" points="108,96.1 107.01,99.31 105.92,99.5 105.62,100.41 108,100 108.99,96.8 117.42,95.31 116.83,94.55 
							"/>
		</g>
		<g>
			<path class="st5" d="M124.72,84.21l7.34-2.53c0.66-0.23,1.23-0.31,1.71-0.25c-0.6-0.62-1.53-0.71-2.79-0.28l-7.34,2.53l1.39,4.03
				l0.81-0.28L124.72,84.21z"/>
		</g>
		<g>
			<polygon class="st5" points="125.67,89.59 127.33,94.39 126.04,94.83 126.32,95.64 128.41,94.92 126.76,90.12 132.88,88.01 
				132.03,87.4 			"/>
		</g>
		<g>
			<path class="st5" d="M137.49,85.02c0.39-0.86,0.4-1.82,0.03-2.89c-0.42-1.22-1.13-2.05-2.13-2.51c-0.15-0.07-0.31-0.12-0.47-0.17
				c0.68,0.49,1.19,1.2,1.52,2.15c0.37,1.07,0.35,2.03-0.03,2.89c-0.36,0.8-1.01,1.45-1.95,1.96l5.06,3.74l-2.19,0.75l0.85,0.61
				l2.43-0.84l-5.06-3.74C136.48,86.47,137.13,85.82,137.49,85.02z"/>
		</g>
		<g>
			<polygon class="st5" points="146.76,85.33 145.56,85.97 145.96,86.72 147.91,85.68 141.66,73.93 140.91,74.33 			"/>
		</g>
		<g>
			<polygon class="st5" points="152.08,76.3 153.43,79.37 152.73,80.23 153.11,81.12 154.63,79.24 153.28,76.18 158.66,69.53 
				157.73,69.33 			"/>
		</g>
		<g>
			<polygon class="st5" points="163.72,68.01 148.94,65.11 148.69,65.42 162.53,68.14 161.27,69.69 162.21,69.89 			"/>
		</g>
		<g>
			<polygon class="st5" points="149.73,67.77 148.36,67.49 151.21,74.22 152.03,73.2 			"/>
		</g>
		<g>
			<g>
				<g>
					<path class="st3" d="M61.74,59.77c-0.47-2.01-5.37-6.38-6.49-8.2c-1.12-1.82-2.23-6.24,1.54-8.63
						c4.07-2.59,8.21,1.95,8.97,2.33c0.77,0.38,0.13-0.32,0.13-0.32s-0.16-1.94-4.57-3.57c-2.3-0.77-5.3-0.31-6.85,1.78
						c-5.01,6.78,3,11.97,6.5,16.15c0,0,1.24,1.64,1.37,2.77C62.34,62.1,62.11,61.3,61.74,59.77z"/>
				</g>
				<g>
					<path class="st3" d="M58.8,60.78c-0.91-1.22-3.85-3.44-5.48-4.95c-1.63-1.5-5.86-5.67-5.36-10.54
						c0.64-6.16,6.16-7.71,6.16-7.71c4.34-1.46,9.1,0.99,9.77,2.07s1.14,1.92,1.14,1.92s0.31-1.18-3.97-2.15
						c-3.57-1.05-7.45-0.08-9.23,2.42c-5.26,7.37,0.83,11.86,5.17,15.79c0,0,4.06,4.03,4.19,5.15
						C61.19,62.79,60.02,62.42,58.8,60.78z"/>
				</g>
				<g>
					<path class="st3" d="M71.04,50.73c5.65-0.17,9.72,0.28,10.4,2.27c0.99,2.89-9.09,3.09-9.09,3.09
						c-9.69-0.1-10.28-3.46-10.28-3.46s0.5,2.98,11.45,2.03c0,0,3.31-0.16,4.15-0.6c1.7-0.6,0.48-1.82-1.34-2.11
						c-5.9-0.97-12.95-0.08-12.95-0.08S65.4,50.9,71.04,50.73z"/>
				</g>
				<g>
					<g>
						<path class="st3" d="M67.67,39.92l-0.69-5.23c0,0,0.17-1.08,3.4-1.51c3.23-0.43,3.84-0.11,2.33,1.21
							c-0.59,0.51-2.63,1.07-4.79,0.64c0,0,4.02,1.49,5.98-0.41c0,0,3.35-2.88-0.7-2.88c-3.13,0-6.59,1.65-7.05,2.88l0.65,5.04
							L67.67,39.92z"/>
					</g>
					<g>
						<path class="st3" d="M73.72,35.35l-0.94,4.52c0,0-3.94,1.27-6.09,0.24c0,0,1.41,2.05,7.26,0.78l1.55-6.97L73.72,35.35z"/>
					</g>
				</g>
				<g>
					<path class="st3" d="M61.37,63.35c0.04,0.26,0.09,0.52,0.14,0.79c1.09,5.92,1.76,7.3,1.76,7.3s-0.61,1.97,7.95,2.29
						c0,0,4.86,0.21,7.93-1.55l2.31-7.78c0,0,4.35-11.19-3.18-13.61c0,0-4.11-1.5-4.04-6.28c0,0-0.43-3.29,2.8-5.01
						c0,0,3-1.56,1.91-2.1c-0.66-0.33-2.37-0.58-4.15-0.35c0,0,6.82-2.03,7.23,0c0,0,0.49,1.01-4.24,3.3
						c-3.25,1.57-2.26,5.53-1.94,6.58c0.32,1.05,1.31,1.96,3,2.73c1.69,0.77,7.82,1.06,5.21,10.25c-2.05,7.24-4.1,13.92-4.1,13.92
						s-1.88,1.82-10.92,1.25c-5.59-0.35-6.48-1.15-6.32-2.33c0,0-2.36-4.18-3.18-10.32L61.37,63.35z M66.15,37.74
						c-1.24,0.1-2.2,0.54-2.15,1.2c0.11,1.43,1.41,1.2,2.23,3.69c0,0,2.41,5.98-3.08,8.44c-1.5,0.67-2.51,2.82-2.6,6.61
						c-0.24-0.33-1.23-1.12-1.22-1.86c0.07-0.83,0.18-1.68,0.33-2.53c0,0,0.19-1.76,3.39-3.19c3.33-1.5,3.45-6.19,1.63-8.53
						c-1.82-2.33-2.54-3.1-0.93-3.9C66.29,36.43,66.15,37.74,66.15,37.74z"/>
				</g>
			</g>
			<g>
				<g>
					<path class="st3" d="M99.15,62.15c0-6.16,5.21-11.15,11.65-11.15c6.43,0,11.65,4.99,11.65,11.15s-5.21,11.15-11.65,11.15
						C104.36,73.3,99.15,68.31,99.15,62.15z M97.93,62.73c0-7.03,5.96-12.73,13.3-12.73s13.3,5.7,13.3,12.73s-5.96,12.73-13.3,12.73
						C103.88,75.46,97.93,69.76,97.93,62.73z"/>
				</g>
				<g>
					<path class="st3" d="M106.74,54.64c0,0-5.06,0.71-6.44,4.14c0,0,3.63-2.46,7.06-1.89c0,0,1.59,0.61-0.71,2.92
						c-2.3,2.3-7.31,1.79-10.33-0.82c0,0,4.5,9.21,13.15,0.71c0,0,1.59-2.71,3.83-2.14c3.69,0.92,2.61,4.14,2.61,4.14
						s3.69-4.35-1.84-6.34l-2.2-0.61c0,0,9.05-2.66,5.42-6.6c-3.63-3.94-5.83,0.82-5.83,0.82s2.25-2.61,4.65-0.31
						c2.4,2.3-5.01,4.6-5.73,4.3c-0.71-0.31-5.16-0.41-1.94-5.32c0,0-4.76,4.04-0.77,6.44L106.74,54.64z"/>
				</g>
			</g>
			<g>
				<path class="st3" d="M96.21,61.76c-9.56,1.84-11.97,0.61-11.97,0.61s4.75-1.28,11.49-2.66L96.21,61.76z M77.56,47.03l-0.96-0.68
					c7.62-4.83,14.39-4.16,14.39-4.16c7.61-5.26,16.77-2.77,16.77-2.77c16.46-5.05,16.75,5.69,16.75,5.69
					c-0.34,2.74-1.66,5.03-3.63,6.95l-1.62-1.6c1.46-1.47,2.28-3.11,2.19-4.93c-0.4-8.43-13.16-4.71-13.16-4.71
					c5.26,3.32,2.35,6.65,2.35,6.65c0.28-3.74-2.48-5.26-2.48-5.26c-5.69-3.74-14.82,1.11-14.82,1.11c7.47,2.07,4.15,8.45,4.15,8.45
					c-0.14-3.32-1.94-6.92-6.92-7.49C85.59,43.69,77.56,47.03,77.56,47.03z"/>
			</g>
			<path class="st2" d="M61.37,63.35c0.04,0.26,0.09,0.52,0.14,0.79c1.09,5.92,1.76,7.3,1.76,7.3s-0.61,1.97,7.95,2.29
				c0,0,4.86,0.21,7.93-1.55l2.31-7.78c0,0,2.8-7.21,0.01-11.31c0.74,2.8-9.12,3-9.12,3c-9.69-0.1-10.28-3.46-10.28-3.46
				s0.5,2.98,11.45,2.03c0,0,3.31-0.16,4.15-0.6c1.7-0.6,0.48-1.82-1.34-2.11c-5.9-0.97-12.95-0.08-12.95-0.08s2.01-0.96,7.66-1.13
				c3.97-0.12,7.17,0.07,8.95,0.89c-0.49-0.33-1.05-0.61-1.71-0.82c0,0-4.11-1.5-4.04-6.28c0,0-0.43-3.29,2.8-5.01
				c0,0,3-1.56,1.91-2.1c-0.66-0.33-2.36-0.58-4.14-0.35l-0.85,3.84c-5.84,1.27-7.26-0.78-7.26-0.78c2.16,1.03,6.09-0.24,6.09-0.24
				l0.94-4.52l1.77-1.43l-0.69,3.13c0.31-0.09,6.81-1.98,7.22,0c0,0,0.49,1.01-4.24,3.3c-3.25,1.57-2.26,5.53-1.94,6.58
				c0.32,1.05,1.31,1.96,3,2.73c1.69,0.77,7.82,1.06,5.21,10.25c-2.05,7.24-4.1,13.92-4.1,13.92s-1.88,1.82-10.92,1.25
				c-5.59-0.35-6.48-1.15-6.32-2.33c0,0-2.36-4.18-3.18-10.32L61.37,63.35z M67.67,39.92l-0.88-0.27l-0.65-5.04
				c0.46-1.22,3.92-2.88,7.05-2.88c4.05,0,0.7,2.88,0.7,2.88c-1.96,1.9-5.98,0.41-5.98,0.41c2.17,0.43,4.2-0.13,4.79-0.64
				c1.51-1.31,0.9-1.64-2.33-1.21c-3.23,0.43-3.4,1.51-3.4,1.51L67.67,39.92z M66.15,37.74c-1.24,0.1-2.2,0.54-2.15,1.2
				c0.11,1.43,1.41,1.2,2.23,3.69c0,0,2.41,5.98-3.08,8.44c-1.5,0.67-2.51,2.82-2.6,6.61c-0.07-0.09-0.2-0.23-0.35-0.38
				c0.78,0.96,1.38,1.84,1.53,2.47c0.15,0.64,0.28,1.16,0.38,1.53c0.11,0.27,0.19,0.54,0.22,0.79c0,0-0.08-0.27-0.22-0.79
				c-0.39-0.98-1.15-1.98-1.15-1.98c-3.5-4.19-11.51-9.38-6.5-16.15c1.55-2.1,4.55-2.55,6.85-1.78c3.44,1.27,4.29,2.73,4.5,3.31
				c-0.1-1.18-0.5-2.3-1.15-3.13c-0.4-0.51-0.74-0.95-1.02-1.33c-0.59-0.27-1.41-0.55-2.6-0.82c-3.57-1.05-7.45-0.08-9.23,2.42
				C46.57,49.21,52.65,53.7,57,57.64c0,0,4.06,4.03,4.19,5.15c0,0-1.17-0.37-2.39-2.01c-0.91-1.22-3.85-3.44-5.48-4.95
				c-1.63-1.5-5.86-5.67-5.36-10.54c0.64-6.16,6.16-7.71,6.16-7.71c3.36-1.13,6.97,0.08,8.74,1.19c-0.05-0.44,0.21-0.77,0.89-1.1
				C66.29,36.43,66.15,37.74,66.15,37.74z M59.64,56.61c-0.17-0.26-0.3-0.53-0.3-0.79c0.07-0.83,0.18-1.68,0.33-2.53
				c0,0,0.19-1.76,3.39-3.19c1.94-0.87,2.79-2.83,2.8-4.78l-0.09-0.04c-0.77-0.38-4.91-4.92-8.97-2.33
				c-3.77,2.39-2.66,6.81-1.54,8.63C55.93,52.68,58.01,54.73,59.64,56.61z M116.57,52.47c-1.86,1.43-4.72,2.28-4.72,2.28l2.2,0.61
				c5.52,2,1.84,6.34,1.84,6.34s1.08-3.22-2.61-4.14c-2.24-0.56-3.83,2.14-3.83,2.14c-4.66,4.57-8.11,4.01-10.3,2.52
				c0.04,6.12,5.24,11.07,11.65,11.07c6.43,0,11.65-4.99,11.65-11.15C122.44,58.01,120.08,54.39,116.57,52.47z M107.47,51.46
				c0.61,1.2,2.46,1.31,2.9,1.49c0.38,0.16,2.63-0.4,4.31-1.32c-1.22-0.41-2.53-0.64-3.89-0.64C109.64,51,108.53,51.16,107.47,51.46
				z M106.16,50.96c0.43-1.76,2.27-3.32,2.27-3.32c-0.83,1.27-1.15,2.22-1.16,2.94c1.25-0.37,2.58-0.57,3.96-0.57
				c1.65,0,3.22,0.29,4.67,0.81c0.72-0.66,0.97-1.4,0.19-2.15c-2.4-2.3-4.65,0.31-4.65,0.31s2.2-4.76,5.83-0.82
				c1.18,1.28,1.02,2.42,0.27,3.38c4.16,2.15,6.98,6.36,6.98,11.21c0,7.03-5.96,12.73-13.3,12.73s-13.3-5.7-13.3-12.73
				c0-0.49,0.03-0.97,0.08-1.44c-1.13-1.12-1.71-2.3-1.71-2.3c0.57,0.49,1.2,0.91,1.88,1.24C99.06,56.02,102.11,52.56,106.16,50.96z
				 M106.74,54.64l0.92-0.57c-1.05-0.63-1.49-1.37-1.58-2.13c-3.64,1.54-6.3,4.82-6.84,8.74c2.7,0.98,5.74,0.77,7.39-0.88
				c2.3-2.3,0.71-2.92,0.71-2.92c-3.42-0.57-7.06,1.89-7.06,1.89C101.68,55.36,106.74,54.64,106.74,54.64z M96.21,61.76
				c-9.56,1.84-11.97,0.61-11.97,0.61s4.75-1.28,11.49-2.66L96.21,61.76z M77.56,47.03l-0.96-0.68c7.62-4.83,14.39-4.16,14.39-4.16
				c7.61-5.26,16.77-2.77,16.77-2.77c16.46-5.05,16.75,5.69,16.75,5.69c-0.34,2.74-1.66,5.03-3.63,6.95l-1.62-1.6
				c1.46-1.47,2.28-3.11,2.19-4.93c-0.4-8.43-13.16-4.71-13.16-4.71c5.26,3.32,2.35,6.65,2.35,6.65c0.28-3.74-2.48-5.26-2.48-5.26
				c-5.69-3.74-14.82,1.11-14.82,1.11c7.47,2.07,4.15,8.45,4.15,8.45c-0.14-3.32-1.94-6.92-6.92-7.49
				C85.59,43.69,77.56,47.03,77.56,47.03z"/>
		</g>
		<g>
			<g>
				<g>
					<path class="st3" d="M61.74,59.77c-0.47-2.01-5.37-6.38-6.49-8.2c-1.12-1.82-2.23-6.24,1.54-8.63
						c4.07-2.59,8.21,1.95,8.97,2.33c0.77,0.38,0.13-0.32,0.13-0.32s-0.16-1.94-4.57-3.57c-2.3-0.77-5.3-0.31-6.85,1.78
						c-5.01,6.78,3,11.97,6.5,16.15c0,0,1.24,1.64,1.37,2.77C62.34,62.1,62.11,61.3,61.74,59.77z"/>
				</g>
				<g>
					<path class="st3" d="M58.8,60.78c-0.91-1.22-3.85-3.44-5.48-4.95c-1.63-1.5-5.86-5.67-5.36-10.54
						c0.64-6.16,6.16-7.71,6.16-7.71c4.34-1.46,9.1,0.99,9.77,2.07s1.14,1.92,1.14,1.92s0.31-1.18-3.97-2.15
						c-3.57-1.05-7.45-0.08-9.23,2.42c-5.26,7.37,0.83,11.86,5.17,15.79c0,0,4.06,4.03,4.19,5.15
						C61.19,62.79,60.02,62.42,58.8,60.78z"/>
				</g>
				<g>
					<path class="st3" d="M71.04,50.73c5.65-0.17,9.72,0.28,10.4,2.27c0.99,2.89-9.09,3.09-9.09,3.09
						c-9.69-0.1-10.28-3.46-10.28-3.46s0.5,2.98,11.45,2.03c0,0,3.31-0.16,4.15-0.6c1.7-0.6,0.48-1.82-1.34-2.11
						c-5.9-0.97-12.95-0.08-12.95-0.08S65.4,50.9,71.04,50.73z"/>
				</g>
				<g>
					<g>
						<path class="st3" d="M67.67,39.92l-0.69-5.23c0,0,0.17-1.08,3.4-1.51c3.23-0.43,3.84-0.11,2.33,1.21
							c-0.59,0.51-2.63,1.07-4.79,0.64c0,0,4.02,1.49,5.98-0.41c0,0,3.35-2.88-0.7-2.88c-3.13,0-6.59,1.65-7.05,2.88l0.65,5.04
							L67.67,39.92z"/>
					</g>
					<g>
						<path class="st3" d="M73.72,35.35l-0.94,4.52c0,0-3.94,1.27-6.09,0.24c0,0,1.41,2.05,7.26,0.78l1.55-6.97L73.72,35.35z"/>
					</g>
				</g>
				<g>
					<path class="st3" d="M61.37,63.35c0.04,0.26,0.09,0.52,0.14,0.79c1.09,5.92,1.76,7.3,1.76,7.3s-0.61,1.97,7.95,2.29
						c0,0,4.86,0.21,7.93-1.55l2.31-7.78c0,0,4.35-11.19-3.18-13.61c0,0-4.11-1.5-4.04-6.28c0,0-0.43-3.29,2.8-5.01
						c0,0,3-1.56,1.91-2.1c-0.66-0.33-2.37-0.58-4.15-0.35c0,0,6.82-2.03,7.23,0c0,0,0.49,1.01-4.24,3.3
						c-3.25,1.57-2.26,5.53-1.94,6.58c0.32,1.05,1.31,1.96,3,2.73c1.69,0.77,7.82,1.06,5.21,10.25c-2.05,7.24-4.1,13.92-4.1,13.92
						s-1.88,1.82-10.92,1.25c-5.59-0.35-6.48-1.15-6.32-2.33c0,0-2.36-4.18-3.18-10.32L61.37,63.35z M66.15,37.74
						c-1.24,0.1-2.2,0.54-2.15,1.2c0.11,1.43,1.41,1.2,2.23,3.69c0,0,2.41,5.98-3.08,8.44c-1.5,0.67-2.51,2.82-2.6,6.61
						c-0.24-0.33-1.23-1.12-1.22-1.86c0.07-0.83,0.18-1.68,0.33-2.53c0,0,0.19-1.76,3.39-3.19c3.33-1.5,3.45-6.19,1.63-8.53
						c-1.82-2.33-2.54-3.1-0.93-3.9C66.29,36.43,66.15,37.74,66.15,37.74z"/>
				</g>
			</g>
			<g>
				<g>
					<path class="st3" d="M99.15,62.15c0-6.16,5.21-11.15,11.65-11.15c6.43,0,11.65,4.99,11.65,11.15s-5.21,11.15-11.65,11.15
						C104.36,73.3,99.15,68.31,99.15,62.15z M97.93,62.73c0-7.03,5.96-12.73,13.3-12.73s13.3,5.7,13.3,12.73s-5.96,12.73-13.3,12.73
						C103.88,75.46,97.93,69.76,97.93,62.73z"/>
				</g>
				<g>
					<path class="st3" d="M106.74,54.64c0,0-5.06,0.71-6.44,4.14c0,0,3.63-2.46,7.06-1.89c0,0,1.59,0.61-0.71,2.92
						c-2.3,2.3-7.31,1.79-10.33-0.82c0,0,4.5,9.21,13.15,0.71c0,0,1.59-2.71,3.83-2.14c3.69,0.92,2.61,4.14,2.61,4.14
						s3.69-4.35-1.84-6.34l-2.2-0.61c0,0,9.05-2.66,5.42-6.6c-3.63-3.94-5.83,0.82-5.83,0.82s2.25-2.61,4.65-0.31
						c2.4,2.3-5.01,4.6-5.73,4.3c-0.71-0.31-5.16-0.41-1.94-5.32c0,0-4.76,4.04-0.77,6.44L106.74,54.64z"/>
				</g>
			</g>
			<g>
				<path class="st3" d="M96.21,61.76c-9.56,1.84-11.97,0.61-11.97,0.61s4.75-1.28,11.49-2.66L96.21,61.76z M77.56,47.03l-0.96-0.68
					c7.62-4.83,14.39-4.16,14.39-4.16c7.61-5.26,16.77-2.77,16.77-2.77c16.46-5.05,16.75,5.69,16.75,5.69
					c-0.34,2.74-1.66,5.03-3.63,6.95l-1.62-1.6c1.46-1.47,2.28-3.11,2.19-4.93c-0.4-8.43-13.16-4.71-13.16-4.71
					c5.26,3.32,2.35,6.65,2.35,6.65c0.28-3.74-2.48-5.26-2.48-5.26c-5.69-3.74-14.82,1.11-14.82,1.11c7.47,2.07,4.15,8.45,4.15,8.45
					c-0.14-3.32-1.94-6.92-6.92-7.49C85.59,43.69,77.56,47.03,77.56,47.03z"/>
			</g>
		</g>
		<g>
			<path class="st6" d="M23.2,68.3c0.9-1.15,2.09-1.74,3.59-1.77s2.97,0.52,4.42,1.65c1.91,1.49,2.96,3.22,3.14,5.18l2.02,0.67
				c0-0.18,0-0.36-0.01-0.54c-0.14-2.68-1.44-4.98-3.9-6.9c-1.83-1.43-3.72-2.15-5.69-2.18c-2.26-0.04-4.05,0.79-5.37,2.48
				c-1.25,1.6-1.67,3.4-1.26,5.38c0.03,0.14,0.06,0.29,0.1,0.43c0.5,1.89,1.68,3.55,3.54,5c1.32,1.03,2.61,1.73,3.87,2.08
				c1.16,0.33,2.39,0.37,3.71,0.15c0.11-0.02,0.22-0.03,0.34-0.06l-0.85-1.99c-1.96,0.32-3.87-0.25-5.72-1.7
				c-1.51-1.18-2.44-2.48-2.78-3.89c0-0.02-0.01-0.04-0.02-0.07C21.97,70.8,22.27,69.49,23.2,68.3z"/>
		</g>
		<g>
			<path class="st6" d="M41.63,90.23c2.04,1.04,3.88,1.47,5.51,1.3c1.59-0.15,2.7-0.85,3.33-2.08l3.7-7.27l0.39-0.76l-1.97-1
				l-3.85,7.55c-0.47,0.93-1.24,1.43-2.29,1.52c-1.05,0.08-2.36-0.27-3.91-1.06c-1.55-0.79-2.61-1.64-3.17-2.55
				c-0.03-0.04-0.05-0.09-0.07-0.13c-0.49-0.86-0.51-1.74-0.06-2.62l3.46-6.8l0.39-0.76l-1.97-1l-4.09,8.03
				c-0.55,1.08-0.54,2.23,0.02,3.44c0.07,0.16,0.16,0.32,0.25,0.47C38.14,87.95,39.58,89.19,41.63,90.23z"/>
		</g>
		<g>
			<polygon class="st6" points="68.75,97.08 68.96,96.26 59.81,93.98 58.98,93.77 61.52,83.61 61.72,82.78 59.58,82.24 56.36,95.16 
				57.19,95.37 68.48,98.18 			"/>
		</g>
		<g>
			<polygon class="st6" points="77.79,86.89 77.88,86.04 75.68,85.81 74.29,99.05 75.14,99.14 76.49,99.28 			"/>
		</g>
		<g>
			<polygon class="st6" points="98.79,87.27 98.79,86.41 96.58,86.41 96.58,97.27 96.58,97.34 87.2,87.27 86.41,86.41 83.67,86.41 
				83.67,99.73 84.52,99.73 85.88,99.73 85.88,88.81 86.73,89.73 96.04,99.73 96.1,99.73 98.79,99.73 			"/>
		</g>
		<g>
			<path class="st6" d="M111.78,85.55l-0.59-0.76l-2.73,0.48l-4.62,14.34l1.28-0.23l1.09-0.19l0.99-3.2l8.83-1.56l0.58,0.76
				l1.45,1.9l0.41-0.07l1.97-0.35L111.78,85.55z M110.18,86.9l0.85,1.1l3.61,4.66l-5.43,0.96l-1.29,0.23L110.18,86.9z"/>
		</g>
		<g>
			<path class="st6" d="M133.64,86.46c0.94-0.51,1.59-1.16,1.95-1.96c0.39-0.86,0.4-1.82,0.03-2.89c-0.33-0.95-0.84-1.67-1.52-2.15
				c-0.19-0.13-0.39-0.26-0.61-0.35c-1-0.45-2.16-0.45-3.48,0l-9.93,3.42l4.34,12.59l0.81-0.28l1.28-0.44l-1.65-4.8l6.36-2.19
				l0.85,0.61l4.21,3.02l0.24-0.08l2.19-0.75L133.64,86.46z M122.83,83.69l7.34-2.53c1.27-0.44,2.2-0.34,2.79,0.28
				c0.22,0.23,0.4,0.53,0.53,0.91c0.45,1.3-0.14,2.22-1.75,2.78l-6.72,2.32l-0.81,0.28L122.83,83.69z"/>
		</g>
		<g>
			<polygon class="st6" points="140.11,74.46 139.71,73.71 137.76,74.74 144.01,86.5 144.77,86.1 145.96,85.47 			"/>
		</g>
		<g>
			<path class="st6" d="M148.01,65.86l-0.95-0.19l-1.75,2.16l5.91,13.85l0.82-1.01l0.7-0.86l-1.35-3.07l5.64-6.97l0.94,0.2
				l2.34,0.49l0.26-0.32l1.26-1.55L148.01,65.86z M147.68,67.93l1.37,0.27l5.78,1.15l-3.47,4.29l-0.82,1.02L147.68,67.93z"/>
		</g>
	</g>
</g>
</svg>
