<svg id="Layer_1" enable-background="new 0 0 512 512" height="512" viewBox="0 0 512 512" width="512" xmlns="http://www.w3.org/2000/svg"><g><path d="m239.387 336.421c-9.48 0-19.729 5.645-30.461 16.779l-64.373 66.823c-11.408 11.839-16.15 25.736-13.354 39.126 2.791 13.397 12.695 24.239 27.887 30.527l43.641 18.075c6.805 2.818 13.555 4.248 20.063 4.248h.004c22.764 0 38.992-17.774 39.467-43.225l1.73-92.771c.283-15.329-2.92-26.514-9.527-33.249-4.071-4.143-9.284-6.333-15.077-6.333z"/><path d="m236.133 0c-4.322 0-8.785.55-13.264 1.634l-62.225 15.051c-15.854 3.831-27.668 13.153-33.268 26.253-5.592 13.095-4.16 28.075 4.031 42.186l90.848 156.382c9.105 15.669 18.367 23.682 27.525 23.816.074.001.148.002.221.002 1.033 0 2.064-.106 3.074-.318 10.629-2.226 16.576-14.076 17.678-35.224l9.379-180.627c.738-14.224-3.572-27.026-12.139-36.049-8.02-8.452-19.335-13.106-31.86-13.106z"/><path d="m420.436 353.791-87.691-30.312c-7.807-2.696-14.893-4.063-21.061-4.063-12.977 0-19.217 5.859-22.162 10.769-5.568 9.271-4.008 22.623 4.518 38.616l43.662 81.875c8.473 15.89 21.963 25.003 37.01 25.005h.002c12.219 0 24.193-6.146 33.719-17.303l30.686-35.928c10.676-12.504 14.578-26.659 10.986-39.859-3.595-13.202-14.13-23.431-29.669-28.8z"/><path d="m455.736 211.555-24.688-40.284c-8.885-14.495-22.105-22.809-36.271-22.809-13.012 0-25.371 6.873-34.801 19.354l-55.92 74.036c-6.576 8.705-16.6 25.334-9.848 38.899 2.459 4.935 9.287 13.214 27.387 13.219h.004c4.152 0 8.725-.438 13.59-1.302l91.363-16.227c16.186-2.874 28.189-11.328 33.807-23.808 5.61-12.474 3.969-27.064-4.623-41.078z"/><path d="m223.834 299.394c.936-11.891-8.43-23.244-26.375-31.969l-83.443-40.569c-7.529-3.666-15.051-5.524-22.357-5.524-21.645 0-37.479 16.422-39.398 40.864l-3.703 47.094c-1.104 14.002 2.666 26.449 10.609 35.038 7.162 7.757 17.43 12.029 28.914 12.029 5.133 0 10.494-.84 15.939-2.496l88.768-27.02c19.077-5.812 30.103-15.557 31.046-27.447z"/></g></svg>