<svg id="Layer_1" enable-background="new 0 0 512 512" height="512" viewBox="0 0 512 512" width="512" xmlns="http://www.w3.org/2000/svg"><path clip-rule="evenodd" d="m256 512c-141.159 0-256-114.841-256-256s114.841-256 256-256 256 114.841 256 256-114.841 256-256 256zm137.909-171.922c1.469-3.737.064-7.752-3.415-9.762l-51.893-29.961c-1.822-1.052-3.957-1.325-6.012-.776-2.057.551-3.767 1.857-4.818 3.676-7.604 13.171-18.985 21.896-32.046 24.567-13.924 2.847-27.293-.157-38.658-8.686-21.595-16.205-47.998-42.607-64.206-64.205-8.529-11.368-11.533-24.735-8.686-38.658 2.671-13.062 11.395-24.442 24.566-32.046 3.785-2.185 5.086-7.042 2.901-10.828l-29.961-51.894c-1.475-2.554-4.034-3.991-6.77-3.991-.989 0-1.999.185-2.992.576l-.622.245c-11.963 4.696-36.859 14.469-41.396 18.793-12.628 12.627-15.634 31.739-8.921 56.788 20.242 75.545 121.556 176.859 197.101 197.102 25.052 6.711 44.162 3.707 56.802-8.934 4.31-4.522 14.081-29.412 18.777-41.373zm24.654 9.68-.248.631c-9.735 24.792-17.204 42.923-24.702 50.421-10.031 10.03-26.419 20.155-51.691 20.155-9.053 0-19.244-1.299-30.692-4.366-84.313-22.593-193.236-131.515-215.827-215.829-11.631-43.409 2.166-68.758 15.788-82.381 7.499-7.499 25.633-14.971 50.432-24.706l.621-.244c15.97-6.271 33.793-.038 42.375 14.824l29.961 51.895c9.486 16.431 3.837 37.517-12.595 47.006-4.611 2.662-10.412 7.322-11.862 14.416-1.323 6.466-.04 12.178 3.921 17.457 14.638 19.505 39.417 44.283 58.92 58.92 5.279 3.961 10.989 5.244 17.458 3.921 7.092-1.45 11.754-7.251 14.416-11.862 4.587-7.947 12.01-13.635 20.898-16.017 8.888-2.381 18.16-1.165 26.106 3.422l51.894 29.961c-.001 0-.001 0 0 0 14.862 8.582 21.096 26.404 14.827 42.376z" fill-rule="evenodd"/></svg>